<svg width="256.67" height="220.85" xmlns="http://www.w3.org/2000/svg" xmlns:xlink="http://www.w3.org/1999/xlink">
 <defs>
  <linearGradient y2="2.640252" x2="1.291117" y1="-0.942048" x1="-0.19993" id="linear-gradient">
   <stop offset="0.01"/>
   <stop stop-opacity="0.69" offset="0.13"/>
   <stop stop-opacity="0.32" offset="0.25"/>
   <stop stop-opacity="0" offset="1"/>
  </linearGradient>
  <linearGradient xlink:href="#linear-gradient" y2="50.37" x2="61.46" y1="190.51" x1="152.16" id="linear-gradient-2"/>
 </defs>
 <title>26</title>
 <g>
  <title>background</title>
  <rect fill="none" id="canvas_background" height="402" width="582" y="-1" x="-1"/>
 </g>
 <g>
  <title>Layer 1</title>
  <path id="svg_3" fill="#473f47" d="m69.76,191.16a1.8,1.8 0 0 0 0.15,1.41a1.83,1.83 0 0 0 1.42,0.51a16,16 0 0 0 10.1,-3.82c0.69,-0.55 1.41,-1.3 1.26,-2.17a1.66,1.66 0 0 0 -1,-1.18a4,4 0 0 0 -1.57,-0.3c-2.67,-0.05 -5,1.06 -7.53,1.54c-2.16,0.37 -2.45,1.85 -2.83,4.01z"/>
  <path id="svg_4" fill="#473f47" d="m92.43,191.16a1.76,1.76 0 0 0 0.16,1.41a1.79,1.79 0 0 0 1.41,0.51a16,16 0 0 0 10.11,-3.82c0.69,-0.55 1.42,-1.3 1.27,-2.17a1.67,1.67 0 0 0 -1,-1.18a3.94,3.94 0 0 0 -1.56,-0.3c-2.67,-0.05 -5,1.06 -7.54,1.54c-2.27,0.37 -2.52,1.85 -2.85,4.01z"/>
  <path id="svg_5" fill="#004d5d" d="m98.72,187.88c-0.3,0.45 -1.22,0.53 -2.22,0.47l-0.07,0a19.84,19.84 0 0 1 -3,-0.47s-0.54,-19.62 -1.62,-23.8s-4.38,-18.36 -4.38,-18.36s-0.25,1.77 -0.66,4.36c-0.52,3.27 -1.31,7.86 -2.2,11.82c-1.58,7.08 -9.15,26 -9.15,26l-4.54,0s5.31,-23.8 5.31,-26.89s-2,-26.35 -2,-26.35l4,-0.32l18.11,-1.45s2.68,11.4 3.89,16.13s-1.47,38.86 -1.47,38.86z"/>
  <path id="svg_6" fill="url(#linear-gradient)" d="m96.5,188.35l-0.07,0a19.84,19.84 0 0 1 -3,-0.47s-0.54,-19.62 -1.62,-23.8s-4.38,-18.36 -4.38,-18.36l-4.74,1l-0.82,1.16s-1.78,7.92 -2.69,14.15c-0.83,5.65 -4.65,22.78 -5.35,25.87l-3,0s5.31,-23.8 5.31,-26.89s-2,-26.35 -2,-26.35l4,-0.32l12.9,3.19s-0.26,2.31 3.51,12.69s1.95,38.13 1.95,38.13z"/>
  <path id="svg_7" fill="#fbc4d6" d="m102.72,112.15a1.85,1.85 0 0 0 2.13,0.2a5.09,5.09 0 0 0 1.5,-1.56l1.79,-2.55a12.21,12.21 0 0 0 1.79,-3.16a23,23 0 0 1 1,-3.73a0.84,0.84 0 0 1 0.35,-0.39c0.28,-0.13 0.59,0 0.89,0.09a1.89,1.89 0 0 0 1.64,-0.72c0.42,-0.47 0.72,-1 1.15,-1.49s1,-0.74 1.52,-0.44s0.48,1.2 0.42,1.88a19.33,19.33 0 0 0 0.24,3.39c0.14,1.6 -0.11,3.39 -1.7,4.2a16,16 0 0 0 -1.58,0.72a5.58,5.58 0 0 0 -1.73,2.53a33.58,33.58 0 0 1 -4.5,7.26c-0.94,1.16 -2.14,2.34 -3.63,2.36c-1.83,0 -2.82,-2.25 -3.54,-3.62a2.6,2.6 0 0 1 -0.35,-1a2.14,2.14 0 0 1 0.21,-1a10.51,10.51 0 0 1 2.4,-2.97z"/>
  <path id="svg_8" fill="#fbc4d6" d="m70.06,112.15a25.38,25.38 0 0 0 -1,8.86c0.35,5 5.39,5.59 5.39,5.59l1,-12.74l-5.39,-1.71z"/>
  <path id="svg_9" fill="#fdffff" d="m87.61,94.72s6.3,1.8 7.93,3.49s0.69,34.66 0.69,34.66s-11,14.31 -22.08,1.77c0,0 -2.46,-33.66 -1,-35.57s6.53,-7.83 14.46,-4.35z"/>
  <path id="svg_10" fill="#fdffff" d="m73.19,99.07s-4.22,7.49 -4.49,10.77a15.57,15.57 0 0 0 0,4.36l4.49,3.68l0,-18.81z"/>
  <path id="svg_11" fill="#fdffff" d="m95.54,98.21s5.18,4.4 7.36,10s-3.13,10.22 -3.13,10.22s-9.21,-9.13 -7.94,-14.17s2.35,-5.96 3.71,-6.05z"/>
  <path id="svg_12" fill="url(#linear-gradient-2)" d="m90.03,113.58a5.88,5.88 0 0 1 0.82,-3.69c2.61,1.41 5.31,2.9 7.07,5.28c0.88,1.19 2,2.78 3.4,2.31a2.06,2.06 0 0 0 1.22,-2.09a5.91,5.91 0 0 0 -0.86,-2.44c-2.8,-5.37 -6,-11.1 -11.47,-13.63a28,28 0 0 0 -4.83,-1.53l-4.62,-1.17a5.65,5.65 0 0 0 -2.54,-0.24a5.2,5.2 0 0 0 -2.56,1.72a34.74,34.74 0 0 0 -6.51,10.08a10,10 0 0 0 -1.13,4.5a4,4 0 0 0 2.41,3.66l2.76,-5.3q-0.35,8.6 0,17.19c0.13,2.88 0.34,5.87 1.79,8.37a9.57,9.57 0 0 0 8.17,4.68a9.14,9.14 0 0 0 6.58,-2.79c1.38,-1.67 0.81,-3.52 0.71,-5.57c-0.23,-6.4 -0.37,-12.9 -0.41,-19.34z"/>
  <path id="svg_13" fill="#fbc4d6" d="m91.26,87.52c-0.53,1.3 -0.32,3 -1.39,3.89c-0.52,0.43 -1.26,0.58 -1.73,1.07c-1.22,1.29 0.19,3.79 -1.07,5a2.38,2.38 0 0 1 -1.22,0.57a5.11,5.11 0 0 1 -3.45,-0.51a2.66,2.66 0 0 1 -1,-0.83a3.21,3.21 0 0 1 -0.39,-1.25c-0.33,-1.84 -0.67,-3.68 -0.93,-5.53a13.12,13.12 0 0 1 0,-5.26a6.73,6.73 0 0 1 4,-4.5c1.79,-0.7 4.79,-0.63 6,1.17a12.32,12.32 0 0 1 1,2.44a8.88,8.88 0 0 1 0.77,1.87a3.59,3.59 0 0 1 -0.59,1.87z"/>
  <path id="svg_14" fill="#543a2d" d="m92.43,79.8a4.62,4.62 0 0 1 -0.45,1.26a1.21,1.21 0 0 1 -0.44,0.53a0.48,0.48 0 0 1 -0.63,-0.1a6,6 0 0 1 -1.76,1.92a1,1 0 0 0 -0.3,0.35c-0.16,0.35 0,0.76 0,1.14c-0.08,0.72 -0.89,1.06 -1.43,1.54a2.56,2.56 0 0 0 -0.88,1.87c-0.41,0 -0.5,-0.74 -0.91,-0.76c-0.23,0 -0.4,0.2 -0.51,0.4a2.81,2.81 0 0 0 -0.49,1.83a1.32,1.32 0 0 0 1.28,1.18a8.56,8.56 0 0 1 -0.88,2.5a2.41,2.41 0 0 1 -0.85,1a2.69,2.69 0 0 1 -1.16,0.25a5.16,5.16 0 0 1 -2.25,-0.24a3.65,3.65 0 0 1 -1.77,-1.68a20,20 0 0 1 -1.28,-4a35.16,35.16 0 0 0 -1.29,-4.1a8,8 0 0 1 -0.46,-2.37a2.72,2.72 0 0 1 0.93,-2.14a6.76,6.76 0 0 0 0.74,-0.55a2.85,2.85 0 0 0 0.56,-1a4.23,4.23 0 0 1 1.23,-1.7a6.19,6.19 0 0 1 1.56,-0.79l6.22,-2.43a1.44,1.44 0 0 0 -0.14,0.89a4.09,4.09 0 0 1 4.64,1.48a4.69,4.69 0 0 1 0.72,3.72z"/>
 </g>
</svg>